# xmcd
#
# Track frame offsets:
#	150
#	22410
#	37536
#	53969
#	74817
#	87443
#	111466
#	136942
#	159339
#	180144
#	203481
#	243778
#	269513
#	298676
#	313877
#
# Disc length: 4407 seconds
#
# Revision: 4
# Processed by: cddbd v1.4PL0 Copyright (c) Steve Scherf et al.
# Submitted via: audiograbber 1.80
#
DISCID=d711350f
DTITLE=The Harlem Gospel Singers - Rock my soul
DYEAR=2000
DGENRE=Blues
TTITLE0=This train (live)
TTITLE1=Its me oh Lord (live)
TTITLE2=Traditional Medley (live)
TTITLE3=Sweeping trough the city (live)
TTITLE4=When all God's children get together (live)
TTITLE5=Free (live)
TTITLE6=Ain't no stoppin' us now (live)
TTITLE7=Walking in Memphis (live)
TTITLE8=The time is now (live)
TTITLE9=Oh happy day (live)
TTITLE10=Happiness (live)
TTITLE11=Imagine
TTITLE12=Medley
TTITLE13=Didn't it rain
TTITLE14=Higher and higher
EXTD=
EXTT0=
EXTT1=
EXTT2=There must be a god somewhere\nOver my head I hear music in the air\nSwin
EXTT2=g low
EXTT3=
EXTT4=
EXTT5=
EXTT6=
EXTT7=
EXTT8=
EXTT9=
EXTT10=
EXTT11=
EXTT12=
EXTT13=
EXTT14=
PLAYORDER=
